<svg xmlns="http://www.w3.org/2000/svg" xml:space="preserve" width="1000px" height="231.125px" x="0px" y="0px" viewBox="0 0 1000 231.125"><g fill="#E50012"><path d="M910.025 125.045h-33.777v46.788h-89.996v28.429h213.763v-28.429h-89.99v-46.788M624.968 157.654c-22.148 0-40.212-17.984-40.212-40.188 0-22.188 18.063-40.272 40.212-40.272 22.243 0 40.307 18.084 40.307 40.272-.001 22.203-18.064 40.188-40.307 40.188m0-113.622c-40.438 0-73.401 32.946-73.401 73.435 0 40.451 32.963 73.438 73.401 73.438 40.521 0 73.472-32.987 73.472-73.438-.001-40.489-32.952-73.435-73.472-73.435M756.828 34.452h-33.794v166.04h33.794V34.452"/><path d="m893.133 74.608-81.234 72.4-24.118-23.832 105.352-92.348 103.464 92.348v.006l-22.229 23.826-81.235-72.4zM433.824 41.667H304.295v86.939c0 40.484 21.024 64.664 64.025 64.664h65.504v-31.445H368.32c-22.816-1.215-30.52-12.019-30.52-33.834V73.116h96.024V41.667M496.612 34.452h-33.773v166.04h33.773v-72.27h31.277v-32.31h-31.277v-61.46"/></g><path fill="#E50012" d="M.015.096h231.119v231.126H.015z"/><path fill="#FFF" d="M183.631 192.435c-5.333 0-9.688-4.329-9.688-9.677 0-5.341 4.354-9.697 9.688-9.697 5.354 0 9.704 4.356 9.704 9.697 0 5.348-4.35 9.677-9.704 9.677m0-27.351c-9.733 0-17.667 7.931-17.667 17.674 0 9.733 7.935 17.675 17.667 17.675 9.747 0 17.683-7.941 17.683-17.675-.001-9.743-7.937-17.674-17.683-17.674M123.153 165.084h-7.952v35.349h7.952v-35.349M98.845 165.084v2.93a17.588 17.588 0 0 0-9.728-2.93c-9.731 0-17.667 7.931-17.667 17.674 0 9.733 7.935 17.675 17.667 17.675 3.599 0 6.943-1.087 9.741-2.941v2.941h7.939v-35.349h-7.952zm-9.728 27.351c-5.335 0-9.685-4.329-9.685-9.677 0-5.341 4.35-9.697 9.685-9.697 5.351 0 9.705 4.356 9.705 9.697 0 5.348-4.354 9.677-9.705 9.677zM139.076 188.628c.065 4.022 3.44 5.641 7.068 5.641 2.663 0 6.033-1.038 6.033-4.275 0-2.793-3.827-3.765-10.441-5.19-5.318-1.168-10.636-3.049-10.636-8.954 0-8.557 7.393-10.763 14.589-10.763 7.333 0 14.078 2.464 14.792 10.699h-8.757c-.259-3.564-2.982-4.54-6.29-4.54-2.077 0-5.124.39-5.124 3.115 0 3.308 5.187 3.761 10.44 4.992 5.384 1.232 10.639 3.177 10.639 9.405 0 8.82-7.655 11.675-15.308 11.675-7.784 0-15.371-2.922-15.761-11.805h8.756zM57.241 152.232v15.791a17.572 17.572 0 0 0-9.739-2.938c-9.733 0-17.667 7.931-17.667 17.674 0 9.733 7.934 17.675 17.667 17.675 3.6 0 6.951-1.087 9.745-2.945l-.005 2.945h7.939v-48.201h-7.94zm-9.739 40.203c-5.332 0-9.685-4.329-9.685-9.677 0-5.341 4.353-9.697 9.685-9.697 5.354 0 9.702 4.356 9.702 9.697 0 5.348-4.348 9.677-9.702 9.677z"/><g fill="#FFF"><path d="M48.462 58.76c-5.622 0-10.212-4.566-10.212-10.202 0-5.633 4.59-10.228 10.212-10.228 5.65 0 10.239 4.595 10.239 10.228 0 5.636-4.589 10.202-10.239 10.202m0-28.846c-10.256 0-18.627 8.365-18.627 18.645 0 10.255 8.371 18.627 18.627 18.627 10.29 0 18.648-8.372 18.648-18.627 0-10.281-8.358-18.645-18.648-18.645M115.565 58.76c-5.629 0-10.213-4.566-10.213-10.202 0-5.633 4.584-10.228 10.213-10.228 5.648 0 10.233 4.595 10.233 10.228.001 5.636-4.584 10.202-10.233 10.202m0-28.846c-10.263 0-18.634 8.365-18.634 18.645 0 10.255 8.372 18.627 18.634 18.627 10.282 0 18.638-8.372 18.638-18.627.001-10.281-8.355-18.645-18.638-18.645M182.668 58.76c-5.614 0-10.215-4.566-10.215-10.202 0-5.633 4.601-10.228 10.215-10.228 5.649 0 10.237 4.595 10.237 10.228 0 5.636-4.588 10.202-10.237 10.202m0-28.846c-10.255 0-18.627 8.365-18.627 18.645 0 10.255 8.373 18.627 18.627 18.627 10.289 0 18.645-8.372 18.645-18.627 0-10.281-8.355-18.645-18.645-18.645M48.462 125.864c-5.622 0-10.212-4.573-10.212-10.208 0-5.641 4.59-10.22 10.212-10.22 5.65 0 10.239 4.58 10.239 10.22 0 5.635-4.589 10.208-10.239 10.208m0-28.847c-10.256 0-18.627 8.358-18.627 18.639 0 10.257 8.371 18.64 18.627 18.64 10.29 0 18.648-8.383 18.648-18.64 0-10.281-8.358-18.639-18.648-18.639M115.565 125.864c-5.629 0-10.213-4.573-10.213-10.208 0-5.641 4.584-10.22 10.213-10.22 5.648 0 10.233 4.58 10.233 10.22.001 5.635-4.584 10.208-10.233 10.208m0-28.847c-10.263 0-18.634 8.358-18.634 18.639 0 10.257 8.372 18.64 18.634 18.64 10.282 0 18.638-8.383 18.638-18.64.001-10.281-8.355-18.639-18.638-18.639M182.668 125.864c-5.614 0-10.215-4.573-10.215-10.208 0-5.641 4.601-10.22 10.215-10.22 5.649 0 10.237 4.58 10.237 10.22 0 5.635-4.588 10.208-10.237 10.208m0-28.847c-10.255 0-18.627 8.358-18.627 18.639 0 10.257 8.373 18.64 18.627 18.64 10.289 0 18.645-8.383 18.645-18.64 0-10.281-8.355-18.639-18.645-18.639"/></g></svg>