<svg width="512" height="512" viewBox="0 0 512 512" xmlns="http://www.w3.org/2000/svg">
  <!-- 배경 원 -->
  <circle cx="256" cy="256" r="240" fill="#4CAF50" stroke="#2E7D32" stroke-width="8"/>
  
  <!-- 버스 본체 -->
  <rect x="106" y="160" width="300" height="160" rx="20" fill="#FFC107" stroke="#F57F17" stroke-width="4"/>
  
  <!-- 버스 창문 -->
  <rect x="130" y="180" width="50" height="40" rx="4" fill="#81C784"/>
  <rect x="200" y="180" width="50" height="40" rx="4" fill="#81C784"/>
  <rect x="270" y="180" width="50" height="40" rx="4" fill="#81C784"/>
  <rect x="340" y="180" width="40" height="40" rx="4" fill="#81C784"/>
  
  <!-- 버스 문 -->
  <rect x="120" y="220" width="20" height="60" rx="4" fill="#FF8F00"/>
  
  <!-- 바퀴 -->
  <circle cx="160" cy="350" r="32" fill="#424242"/>
  <circle cx="160" cy="350" r="20" fill="#757575"/>
  <circle cx="352" cy="350" r="32" fill="#424242"/>
  <circle cx="352" cy="350" r="20" fill="#757575"/>
  
  <!-- 헤드라이트 -->
  <circle cx="130" cy="240" r="16" fill="#FFEB3B"/>
  <circle cx="382" cy="240" r="16" fill="#FFEB3B"/>
  
  <!-- 번호판 -->
  <rect x="210" y="130" width="92" height="32" rx="4" fill="#FFFFFF"/>
  <text x="256" y="150" text-anchor="middle" font-family="Arial" font-size="20" font-weight="bold" fill="#333">카운터</text>
</svg>



